<?xml version="1.0" encoding="iso-8859-1"?>
<!-- Uploaded to: SVG Repo, www.svgrepo.com, Generator: SVG Repo Mixer Tools -->
<svg height="800px" width="800px" version="1.1" id="Layer_1" xmlns="http://www.w3.org/2000/svg" xmlns:xlink="http://www.w3.org/1999/xlink" 
	 viewBox="0 0 512 512" xml:space="preserve">
<path style="fill:#1D3366;" d="M505.152,192.972l-62.054-62.008c-4.362-4.361-10.276-6.809-16.443-6.81l-170.65-0.045
	c-0.002,0-0.003,0-0.006,0c-6.171,0-12.088,2.451-16.452,6.814c-4.364,4.364-6.818,10.284-6.818,16.457v124.107
	c0,12.851,10.419,23.27,23.27,23.27h170.65c6.171,0,12.091-2.453,16.454-6.815l62.054-62.054c4.366-4.364,6.818-10.286,6.817-16.458
	C511.974,203.256,509.519,197.335,505.152,192.972z"/>
<g>
	<path style="fill:#385C8E;" d="M256.001,248.216H85.351c-6.173,0-12.091,2.453-16.454,6.817L6.843,317.087
		c-4.366,4.366-6.818,10.286-6.817,16.458c0.002,6.173,2.454,12.093,6.82,16.455l62.054,62.013
		c4.364,4.361,10.278,6.809,16.444,6.812l170.65,0.04c0.002,0,0.005,0,0.006,0c6.17,0,12.088-2.45,16.452-6.814
		s6.818-10.284,6.818-16.457V271.486C279.271,258.635,268.852,248.216,256.001,248.216z"/>
	<path style="fill:#385C8E;" d="M256.001,0H85.351C79.178,0,73.26,2.451,68.897,6.817L6.843,68.871
		c-4.366,4.364-6.818,10.286-6.817,16.457c0.002,6.173,2.454,12.093,6.823,16.457l62.054,62.013
		c4.362,4.359,10.276,6.809,16.443,6.81l170.65,0.042c0.003,0,0.005,0,0.006,0c6.17,0,12.088-2.451,16.452-6.815
		c4.364-4.364,6.818-10.284,6.818-16.455V23.27C279.271,10.419,268.852,0,256.001,0z"/>
</g>
<path style="fill:#A4C6EC;" d="M256.001,0c-12.851,0-23.27,10.419-23.27,23.27V488.73c0,12.851,10.419,23.27,23.27,23.27
	c12.851,0,23.27-10.419,23.27-23.27V23.27C279.271,10.419,268.852,0,256.001,0z"/>
</svg>